{
  "accessors": [
    {
      "bufferView": 2,
      "componentType": 5126,
      "count": 28119,
      "max": [
        -67.811164855957031,
        36.284904479980469,
        51.984340667724609
      ],
      "min": [
        -132.21484375,
        -37.532100677490234,
        -13.386631011962891
      ],
      "type": "VEC3"
    },
    {
      "bufferView": 2,
      "byteOffset": 337428,
      "componentType": 5126,
      "count": 28119,
      "max": [
        0.9999958872795105,
        0.99998307228088379,
        0.99999940395355225
      ],
      "min": [
        -0.99999886751174927,
        -0.99996566772460938,
        -0.99999988079071045
      ],
      "type": "VEC3"
    },
    {
      "bufferView": 3,
      "componentType": 5126,
      "count": 28119,
      "max": [
        1,
        0.99999380111694336,
        0.99796062707901001,
        1
      ],
      "min": [
        -1,
        -0.99897277355194092,
        -0.9989389181137085,
        1
      ],
      "type": "VEC4"
    },
    {
      "bufferView": 1,
      "componentType": 5126,
      "count": 28119,
      "max": [
        0.99615699052810669,
        0.9969559907913208
      ],
      "min": [
        0.0020000000949949026,
        0.0020000000949949026
      ],
      "type": "VEC2"
    },
    {
      "bufferView": 0,
      "componentType": 5125,
      "count": 141180,
      "max": [
        28118
      ],
      "min": [
        0
      ],
      "type": "SCALAR"
    },
    {
      "bufferView": 2,
      "byteOffset": 674856,
      "componentType": 5126,
      "count": 5132,
      "max": [
        -65.729850769042969,
        36.011566162109375,
        48.963001251220703
      ],
      "min": [
        -133.7298583984375,
        -39.573284149169922,
        -45.196834564208984
      ],
      "type": "VEC3"
    },
    {
      "bufferView": 2,
      "byteOffset": 736440,
      "componentType": 5126,
      "count": 5132,
      "max": [
        1,
        1,
        1
      ],
      "min": [
        -1,
        -1,
        -1
      ],
      "type": "VEC3"
    },
    {
      "bufferView": 3,
      "byteOffset": 449904,
      "componentType": 5126,
      "count": 5132,
      "max": [
        1,
        1,
        1,
        1
      ],
      "min": [
        -1,
        -1,
        -1,
        1
      ],
      "type": "VEC4"
    },
    {
      "bufferView": 1,
      "byteOffset": 224952,
      "componentType": 5126,
      "count": 5132,
      "max": [
        0.99011397361755371,
        0.99900001287460327
      ],
      "min": [
        0.0010000000474974513,
        0.0010000000474974513
      ],
      "type": "VEC2"
    },
    {
      "bufferView": 0,
      "byteOffset": 564720,
      "componentType": 5125,
      "count": 16467,
      "max": [
        5131
      ],
      "min": [
        0
      ],
      "type": "SCALAR"
    }
  ],
  "asset": {
    "extras": {
      "author": "Francesco Coldesina (https://sketchfab.com/topfrank2013)",
      "license": "CC-BY-4.0 (http://creativecommons.org/licenses/by/4.0/)",
      "source": "https://sketchfab.com/models/8aed65f55d4e4d86b40d9a7cb804f45e",
      "title": "Chair"
    },
    "generator": "Sketchfab-3.19.6",
    "version": "2.0"
  },
  "bufferViews": [
    {
      "buffer": 0,
      "byteLength": 630588,
      "byteOffset": 0,
      "name": "floatBufferViews",
      "target": 34963
    },
    {
      "buffer": 0,
      "byteLength": 266008,
      "byteOffset": 630588,
      "byteStride": 8,
      "name": "floatBufferViews",
      "target": 34962
    },
    {
      "buffer": 0,
      "byteLength": 798024,
      "byteOffset": 896596,
      "byteStride": 12,
      "name": "floatBufferViews",
      "target": 34962
    },
    {
      "buffer": 0,
      "byteLength": 532016,
      "byteOffset": 1694620,
      "byteStride": 16,
      "name": "floatBufferViews",
      "target": 34962
    }
  ],
  "buffers": [
    {
      "byteLength": 2226636,
      "uri": "scene.bin"
    }
  ],
  "images": [
    {
      "uri": "textures/CusciniA1_baseColor.jpeg"
    },
    {
      "uri": "textures/CusciniA1_emissive.jpeg"
    },
    {
      "uri": "textures/Sedia_Poltrona_A01_baseColor.jpeg"
    },
    {
      "uri": "textures/Sedia_Poltrona_A01_metallicRoughness.png"
    },
    {
      "uri": "textures/Sedia_Poltrona_A01_emissive.jpeg"
    }
  ],
  "materials": [
    {
      "doubleSided": true,
      "emissiveFactor": [
        0,
        0,
        0
      ],
      "emissiveTexture": {
        "index": 1,
        "texCoord": 0
      },
      "name": "CusciniA1",
      "pbrMetallicRoughness": {
        "baseColorFactor": [
          1,
          1,
          1,
          1
        ],
        "baseColorTexture": {
          "index": 0,
          "texCoord": 0
        },
        "metallicFactor": 0,
        "roughnessFactor": 1
      }
    },
    {
      "doubleSided": true,
      "emissiveFactor": [
        0,
        0,
        0
      ],
      "emissiveTexture": {
        "index": 4,
        "texCoord": 0
      },
      "name": "Sedia_Poltrona_A01",
      "pbrMetallicRoughness": {
        "baseColorFactor": [
          1,
          1,
          1,
          1
        ],
        "baseColorTexture": {
          "index": 2,
          "texCoord": 0
        },
        "metallicFactor": 0,
        "metallicRoughnessTexture": {
          "index": 3,
          "texCoord": 0
        },
        "roughnessFactor": 1
      }
    }
  ],
  "meshes": [
    {
      "primitives": [
        {
          "attributes": {
            "NORMAL": 1,
            "POSITION": 0,
            "TANGENT": 2,
            "TEXCOORD_0": 3
          },
          "indices": 4,
          "material": 0,
          "mode": 4
        }
      ]
    },
    {
      "primitives": [
        {
          "attributes": {
            "NORMAL": 6,
            "POSITION": 5,
            "TANGENT": 7,
            "TEXCOORD_0": 8
          },
          "indices": 9,
          "material": 1,
          "mode": 4
        }
      ]
    }
  ],
  "nodes": [
    {
      "children": [
        1
      ],
      "name": "RootNode (gltf orientation matrix)",
      "rotation": [
        -0.70710678118654746,
        -0,
        -0,
        0.70710678118654757
      ]
    },
    {
      "children": [
        2
      ],
      "name": "RootNode (model correction matrix)"
    },
    {
      "children": [
        3,
        4
      ],
      "name": "SediaPoltrona A1.obj.cleaner.materialmerger.gles"
    },
    {
      "mesh": 0,
      "name": ""
    },
    {
      "mesh": 1,
      "name": ""
    }
  ],
  "samplers": [
    {
      "magFilter": 9729,
      "minFilter": 9987,
      "wrapS": 10497,
      "wrapT": 10497
    }
  ],
  "scene": 0,
  "scenes": [
    {
      "name": "OSG_Scene",
      "nodes": [
        0
      ]
    }
  ],
  "textures": [
    {
      "sampler": 0,
      "source": 0
    },
    {
      "sampler": 0,
      "source": 1
    },
    {
      "sampler": 0,
      "source": 2
    },
    {
      "sampler": 0,
      "source": 3
    },
    {
      "sampler": 0,
      "source": 4
    }
  ]
}

